<svg width="420" height="196" viewBox="0 0 420 196" fill="none" xmlns="http://www.w3.org/2000/svg">
<g clip-path="url(#clip0_25086_18770)">
<path d="M229.374 29.1674C229.539 29.1287 229.918 29.0417 230.074 29.0078C230.142 28.9885 230.784 28.7709 230.871 28.7468C233.006 28.0361 236.162 26.9629 238.302 26.2426L239.814 25.7447C240.495 25.5416 241.278 25.2274 242.007 25.2322C245.475 25.4981 245.266 30.4823 241.784 30.4533C241.901 30.4629 242.022 30.4533 242.134 30.4243C241.983 30.4291 241.837 30.4436 241.662 30.4629C240.286 30.6273 237.675 30.9947 236.279 31.1929C234.806 31.396 232.194 31.7827 230.74 31.9616C230.512 31.9954 230.244 31.9906 230.02 31.9954C228.129 32.2323 227.56 29.6798 229.388 29.1625L229.374 29.1674Z" fill="#FFD644"/>
<path d="M178.071 40.2332C178.299 40.2138 178.747 40.1703 178.97 40.1655C178.985 40.1703 178.98 40.1751 178.999 40.18L179.087 40.1703C180.371 40.0349 182.977 39.6965 184.285 39.5273C185.316 39.3968 187.986 39.0536 188.988 38.9376C189.362 38.894 190.067 38.8119 190.442 38.778C191.4 38.5798 192.392 39.247 192.338 40.267C192.304 41.0695 191.624 41.6883 190.816 41.6544C190.85 41.6738 190.894 41.6834 190.928 41.6786L190.773 41.7318C190.131 41.9397 188.881 42.3747 188.234 42.5971C185.832 43.4286 182.603 44.613 180.201 45.4059C180.035 45.459 179.821 45.5074 179.651 45.546C179.5 45.5944 179.286 45.6621 179.131 45.7056C175.109 46.6966 173.961 40.7939 178.071 40.2283V40.2332Z" fill="#FFD644"/>
<path d="M211.49 49.9742C209.107 49.9742 206.739 49.3796 204.706 48.2049C201.258 46.2132 198.637 42.4376 197.703 38.1012C196.789 33.8663 197.577 29.7427 199.921 26.494C203.772 21.1473 211.188 19.0444 217.962 21.3745C218.726 21.6356 219.124 22.4622 218.862 23.2212C218.599 23.9802 217.768 24.3814 217.004 24.1156C211.446 22.2012 205.391 23.869 202.289 28.1812C200.431 30.7627 199.814 34.0694 200.553 37.4921C201.321 41.0405 203.417 44.1054 206.17 45.6959C208.99 47.325 212.647 47.5329 215.715 46.2373C219.83 44.5018 221.376 40.7746 221.755 39.6723C222.164 38.4783 223.122 35.6792 221.741 32.7786C220.316 29.791 217.403 28.6936 216.547 28.4326C215.779 28.1957 215.346 27.3835 215.584 26.6197C215.822 25.8559 216.639 25.4257 217.408 25.6625C218.555 26.0154 222.446 27.4802 224.376 31.541C226.263 35.5052 224.994 39.2131 224.513 40.6102C224.036 42.0025 222.081 46.7063 216.849 48.9107C215.156 49.6262 213.318 49.9791 211.485 49.9791L211.49 49.9742Z" fill="#FFD644"/>
<path d="M204.019 16.4193C204.005 16.1244 203.966 15.786 203.844 15.5298C203.786 15.3751 203.679 15.0657 203.621 14.911C202.38 11.5705 201.033 7.98345 199.73 4.67678C199.108 3.10564 199.886 1.33628 201.466 0.71749C203.329 -0.0463302 205.493 1.29277 205.648 3.27967C205.926 6.29628 206.276 9.63194 206.567 12.6631C206.611 13.2093 206.747 14.5533 206.786 15.0899C206.815 15.3848 206.786 15.6216 206.908 15.8875C207.569 18.0823 204.199 18.7059 204.024 16.4193H204.019Z" fill="#FFD644"/>
<path d="M215.521 67.339C215.496 67.1215 215.458 66.6961 215.438 66.4882C215.448 66.406 215.419 66.2465 215.409 66.1643C215.244 64.9847 214.82 62.4032 214.631 61.1995C214.47 60.1843 214.047 57.5447 213.897 56.5585C213.824 55.9736 213.673 55.2146 213.668 54.6248C213.799 52.7201 216.615 52.8313 216.581 54.7505C216.6 54.7167 216.605 54.6732 216.6 54.6393L216.644 54.794C216.829 55.437 217.232 56.6891 217.437 57.3369C218.2 59.7395 219.285 62.9737 220.014 65.3715C220.063 65.5262 220.102 65.7292 220.136 65.8887C220.17 65.9999 220.209 66.1788 220.238 66.2852C221.205 69.7417 216.08 70.8681 215.516 67.3294L215.521 67.339Z" fill="#FFD644"/>
<path d="M219.354 17.5747C219.442 17.391 219.651 17.043 219.724 16.8593C219.729 16.8061 219.758 16.7239 219.782 16.6756C220.696 14.3454 221.927 11.1161 222.841 8.77147C223.206 7.90129 223.634 6.65888 224.081 5.82254C225.345 3.72446 228.433 3.46824 230.062 5.28594C231.482 6.82324 231.375 9.21139 229.834 10.623C229.98 10.4876 230.106 10.3329 230.208 10.1637C229.921 10.3765 229.644 10.71 229.367 10.9904C228.696 11.7059 226.863 13.7121 226.177 14.4614C225.161 15.5733 223.376 17.5506 222.369 18.6334C222.223 18.8171 222 18.9767 221.825 19.1217C220.604 20.4076 218.625 19.1749 219.364 17.5651L219.354 17.5747Z" fill="#FFD644"/>
<path d="M190.404 61.1173C190.565 60.9384 190.886 60.5759 191.046 60.4115V60.4163V60.4308C191.046 60.4308 191.056 60.4453 191.061 60.4405L191.119 60.3777C191.995 59.4301 193.697 57.4191 194.557 56.4232C195.238 55.6352 197.003 53.5855 197.67 52.8216C197.927 52.5413 198.384 52.0046 198.647 51.7243C199.196 50.9266 200.364 50.6849 201.054 51.4487C201.599 52.0385 201.56 52.957 200.967 53.4984C201.01 53.4888 201.044 53.4694 201.074 53.4453C200.952 53.7257 200.685 54.3396 200.558 54.6297C200.169 55.5289 199.128 58.0234 198.735 58.966C198.229 60.1504 197.237 62.5869 196.716 63.7375C196.687 63.781 196.605 63.9889 196.575 64.0372C196.502 64.1726 196.366 64.3805 196.303 64.5062C195.724 66.4495 193.59 67.5373 191.674 66.8024C189.344 65.9758 188.659 62.8383 190.395 61.1125L190.404 61.1173Z" fill="#FFD644"/>
<path d="M192.362 26.3828C191.992 26.0396 191.472 25.7882 191.024 25.5658C190.149 25.1162 187.752 23.9222 186.842 23.4629C184.975 22.5299 183.098 21.6065 181.216 20.6977C179.932 20.0741 179.392 18.5368 180.02 17.2557C180.71 15.8005 182.65 15.351 183.92 16.3372C186.76 18.4884 191.146 21.7661 193.928 23.9318C195.863 25.0921 194.137 27.7123 192.362 26.378V26.3828Z" fill="#FFD644"/>
<path d="M236.277 54.9729C236.097 54.8182 235.747 54.5088 235.577 54.3541C235.616 54.3299 235.582 54.3251 235.528 54.2719C234.561 53.4211 232.513 51.7677 231.497 50.9266C230.695 50.2643 228.608 48.5529 227.835 47.9051C227.548 47.6586 227.004 47.209 226.722 46.9576C225.914 46.4162 225.676 45.2511 226.444 44.5646C227.038 44.0232 227.962 44.0619 228.506 44.6516C228.497 44.613 228.477 44.5743 228.448 44.5501C228.73 44.6807 229.333 44.9514 229.63 45.0819C230.529 45.4831 233.009 46.5564 233.948 46.9624C234.916 47.383 237.381 48.4466 238.315 48.8672C238.67 49.0267 239.088 49.2152 239.414 49.4328C241.223 50.0322 242.21 52.0675 241.422 53.832C240.591 55.8286 237.877 56.4183 236.277 54.9729Z" fill="#FFD644"/>
</g>
<path d="M58.424 109.008C57.8827 109.008 57.612 108.621 57.612 107.848C57.612 107.345 57.8053 107.017 58.192 106.862C59.1973 106.553 60.7633 105.973 62.89 105.122C63.3153 104.851 63.818 104.503 64.398 104.078C65.0167 103.653 65.6933 103.131 66.428 102.512C66.9307 102.125 67.5687 101.603 68.342 100.946C69.1153 100.25 69.9853 99.3607 70.952 98.278L72.576 96.422C72.9627 95.9193 73.2527 95.262 73.446 94.45C73.5233 94.102 73.5813 93.7153 73.62 93.29C73.6587 92.8647 73.678 92.4007 73.678 91.898C73.678 91.0473 73.62 90.0807 73.504 88.998C73.3493 87.5287 73.0013 86.3107 72.46 85.344C72.1507 84.6867 71.4933 83.6813 70.488 82.328C69.8307 81.3613 68.3227 80.182 65.964 78.79C65.384 78.4033 63.8567 77.746 61.382 76.818C59.1393 75.89 57.844 75.252 57.496 74.904L56.046 73.454L56.278 73.222L55.988 73.338C55.8333 73.1833 55.756 72.932 55.756 72.584C55.756 71.5013 56.1233 70.96 56.858 70.96C56.9353 70.96 57.0513 70.9987 57.206 71.076H57.322C57.4767 71.2693 57.6507 71.5013 57.844 71.772C58.0373 72.0427 58.25 72.3327 58.482 72.642C58.6367 72.7967 59.874 73.3187 62.194 74.208C63.4313 74.6333 64.4367 75.02 65.21 75.368C66.022 75.716 66.6213 76.006 67.008 76.238L69.502 77.862C70.314 78.4807 71.0487 79.312 71.706 80.356C72.6727 81.4387 73.446 82.6373 74.026 83.952C74.606 85.2667 75.0313 86.6587 75.302 88.128C75.4953 89.3267 75.6307 90.2933 75.708 91.028C75.824 91.7627 75.882 92.2267 75.882 92.42C75.882 93.3093 75.766 94.1987 75.534 95.088C75.186 96.4413 74.6447 97.524 73.91 98.336L71.938 100.366C71.2807 101.023 70.5653 101.739 69.792 102.512C69.0573 103.285 68.2067 104.059 67.24 104.832C65.9253 105.915 64.5913 106.843 63.238 107.616C62.5807 108.003 61.8267 108.254 60.976 108.37C59.9707 108.563 59.236 108.737 58.772 108.892C58.6173 108.969 58.5013 109.008 58.424 109.008ZM54.306 105.064C54.074 105.064 53.8227 104.813 53.552 104.31C53.0107 103.305 52.74 101.932 52.74 100.192V100.018C52.74 99.0513 52.8367 97.9107 53.03 96.596C53.262 95.2813 53.5713 93.7927 53.958 92.13L55.06 87.2C55.408 86.04 55.814 84.4547 56.278 82.444L56.916 77.63C57.032 76.6633 57.38 76.18 57.96 76.18C58.54 76.18 58.7913 76.6827 58.714 77.688L58.308 82.502C58.308 82.5407 58.192 83.024 57.96 83.952C57.7667 84.88 57.4573 86.2333 57.032 88.012C56.8 88.708 56.4907 89.7327 56.104 91.086C55.7173 92.4007 55.3693 93.8313 55.06 95.378C54.7507 96.886 54.596 98.278 54.596 99.554C54.596 101.062 54.9053 102.241 55.524 103.092L55.35 103.15C55.4273 103.575 55.35 104.001 55.118 104.426C54.886 104.851 54.6153 105.064 54.306 105.064ZM81.1228 88.302C80.5428 88.302 80.2722 87.954 80.3108 87.258L80.8908 85.054C81.0068 84.6287 81.2775 84.416 81.7028 84.416C82.5922 84.416 82.9595 84.7833 82.8048 85.518C82.7662 86.0593 82.6308 86.6587 82.3988 87.316C82.1668 87.9733 81.7415 88.302 81.1228 88.302ZM79.0928 106.572C78.7448 106.572 78.5128 106.417 78.3968 106.108C78.2422 105.683 78.1455 105.161 78.1068 104.542C78.0682 103.923 78.0682 103.227 78.1068 102.454C78.1842 101.565 78.3968 100.443 78.7448 99.09C79.1315 97.7367 79.6535 96.1707 80.3108 94.392C80.4655 94.0053 80.7362 93.812 81.1228 93.812C81.8575 93.812 82.1088 94.1407 81.8768 94.798C81.7222 95.3007 81.5868 95.8033 81.4708 96.306C81.3548 96.8087 81.2388 97.3113 81.1228 97.814C80.9295 98.7033 80.7748 99.496 80.6588 100.192C80.5428 100.888 80.4848 101.507 80.4848 102.048C80.4848 103.943 80.5042 104.929 80.5428 105.006C80.6588 105.393 80.5428 105.76 80.1948 106.108C79.8468 106.417 79.4795 106.572 79.0928 106.572ZM86.858 108.776C85.8914 108.776 85.06 108.602 84.364 108.254C83.7067 107.906 83.378 107.423 83.378 106.804C83.378 106.379 83.5714 106.166 83.958 106.166C83.9194 106.166 84.2287 106.301 84.886 106.572C85.5434 106.804 86.2394 106.92 86.974 106.92C89.2167 106.92 90.628 105.876 91.208 103.788C91.44 102.899 90.628 101.429 88.772 99.38C87.4574 97.9493 86.8 96.3253 86.8 94.508C86.8 93.8893 87.0707 93.174 87.612 92.362C88.1534 91.5113 88.8107 90.7767 89.584 90.158C90.3574 89.5007 91.092 89.172 91.788 89.172C93.0254 89.172 93.7214 89.4813 93.876 90.1C93.9147 90.216 93.934 90.332 93.934 90.448C93.9727 90.564 93.992 90.68 93.992 90.796C93.992 91.4147 93.76 91.724 93.296 91.724C93.0254 91.724 92.8127 91.6273 92.658 91.434C92.4647 91.2407 92.194 91.144 91.846 91.144C91.7687 91.144 91.672 91.144 91.556 91.144C91.44 91.144 91.3434 91.1827 91.266 91.26C89.874 91.956 89.0814 92.9227 88.888 94.16C88.7334 95.2427 89.5647 96.7507 91.382 98.684C93.006 100.424 93.818 102.048 93.818 103.556C93.818 105.219 92.9674 106.553 91.266 107.558C89.9514 108.37 88.482 108.776 86.858 108.776ZM102.539 112.72C102.268 112.72 101.978 112.527 101.669 112.14C101.398 111.753 101.166 111.309 100.973 110.806C100.818 110.303 100.741 109.897 100.741 109.588C100.818 108.08 101.166 106.379 101.785 104.484C101.978 103.943 102.268 103.711 102.655 103.788C102.732 103.131 102.81 102.299 102.887 101.294C103.003 100.289 103.138 99.1287 103.293 97.814C103.1 97.2727 102.694 97.002 102.075 97.002C101.92 97.002 101.34 97.0987 100.335 97.292C99.3682 97.4853 97.9376 97.7753 96.0429 98.162C96.0042 98.162 95.9656 98.1813 95.9269 98.22C95.8882 98.22 95.8302 98.2007 95.7529 98.162C95.3662 98.162 95.1729 97.93 95.1729 97.466C95.1729 96.9247 95.4242 96.538 95.9269 96.306L95.8689 96.364C96.4489 96.0933 97.8602 95.6873 100.103 95.146C101.766 94.7207 103.1 94.1793 104.105 93.522L104.453 90.564C104.608 89.1333 104.859 87.664 105.207 86.156C105.555 84.6093 106.038 83.0433 106.657 81.458C107.933 78.0167 109.441 75.252 111.181 73.164C112.65 71.4627 114.12 70.612 115.589 70.612C116.865 70.612 117.986 71.2113 118.953 72.41C119.108 72.5647 119.185 72.7387 119.185 72.932C119.185 73.3573 118.953 73.57 118.489 73.57C118.218 73.57 117.986 73.454 117.793 73.222C117.174 72.4873 116.498 72.12 115.763 72.12C114.023 72.12 112.186 74.034 110.253 77.862C109.48 79.4087 108.803 81.2453 108.223 83.372C107.643 85.46 107.198 87.8187 106.889 90.448L106.831 91.434L106.715 93C107.836 93.348 109.074 93.522 110.427 93.522L114.139 93.406C115.299 93.4447 115.879 93.8313 115.879 94.566C115.879 95.2233 115.57 95.552 114.951 95.552H110.427C108.803 95.668 107.372 96.1127 106.135 96.886C104.975 105.857 103.989 110.98 103.177 112.256C102.984 112.565 102.771 112.72 102.539 112.72ZM117.459 107.094C117.072 107.094 116.821 106.649 116.705 105.76C116.589 104.832 116.531 103.885 116.531 102.918C116.531 102.299 116.531 101.739 116.531 101.236C116.57 100.695 116.589 100.289 116.589 100.018C116.589 99.6313 116.608 99.148 116.647 98.568C116.686 97.9493 116.744 97.2533 116.821 96.48C116.937 94.8947 116.995 93.696 116.995 92.884C116.995 92.4973 116.976 92.13 116.937 91.782C116.898 91.3953 116.879 91.0473 116.879 90.738V90.506C116.879 90.042 117.13 89.81 117.633 89.81C118.02 89.81 118.232 90.042 118.271 90.506C118.348 90.9313 118.406 91.8013 118.445 93.116C118.484 94.4307 118.522 96.1707 118.561 98.336C118.561 98.916 118.677 99.206 118.909 99.206C119.18 99.206 119.586 98.7613 120.127 97.872C121.248 96.016 122.466 94.45 123.781 93.174C124.748 92.2847 125.637 91.84 126.449 91.84C127.416 91.84 128.247 92.2653 128.943 93.116C129.175 93.3867 129.291 93.6767 129.291 93.986C129.291 94.4887 129.078 94.74 128.653 94.74C128.498 94.74 128.324 94.682 128.131 94.566L128.073 94.624C127.338 94.0827 126.855 93.812 126.623 93.812C125.695 93.812 124.825 94.3147 124.013 95.32C121.19 98.8 119.45 102.319 118.793 105.876C118.638 106.688 118.194 107.094 117.459 107.094ZM142.112 107.5C141.261 107.539 140.604 107.036 140.14 105.992C140.062 105.799 139.966 105.47 139.85 105.006C139.734 104.542 139.579 103.943 139.386 103.208C139.231 102.241 138.98 101.855 138.632 102.048C138.013 103.015 137.124 104.078 135.964 105.238C134.494 106.707 133.392 107.442 132.658 107.442C131.846 107.442 131.15 106.823 130.57 105.586C130.067 104.619 129.816 103.691 129.816 102.802C129.816 99.8247 130.202 97.2147 130.976 94.972C131.169 94.508 131.459 94.276 131.846 94.276C132.194 94.276 132.522 94.45 132.832 94.798C133.141 95.146 133.296 95.5327 133.296 95.958C133.296 96.19 133.141 96.654 132.832 97.35C132.097 98.7807 131.73 100.385 131.73 102.164C131.73 104.097 132.097 105.064 132.832 105.064C133.18 105.064 134.03 104.503 135.384 103.382C137.781 101.333 139.502 98.6647 140.546 95.378C140.739 94.914 141.048 94.682 141.474 94.682C142.17 94.682 142.518 94.972 142.518 95.552C142.518 95.9387 142.46 96.364 142.344 96.828C142.266 97.292 142.131 97.814 141.938 98.394C141.783 98.974 141.667 99.496 141.59 99.96C141.512 100.424 141.474 100.849 141.474 101.236C141.474 101.507 141.493 101.835 141.532 102.222C141.57 102.57 141.628 102.957 141.706 103.382C141.899 104.542 142.112 105.219 142.344 105.412C142.344 105.412 142.537 105.315 142.924 105.122C143.349 104.89 143.813 104.658 144.316 104.426C144.857 104.155 145.302 103.923 145.65 103.73C146.036 103.498 146.23 103.382 146.23 103.382C146.616 103.382 146.81 103.537 146.81 103.846C146.81 104.155 146.481 104.6 145.824 105.18C145.205 105.76 144.528 106.282 143.794 106.746C143.059 107.21 142.498 107.461 142.112 107.5ZM151.212 110.98C150.245 110.98 149.762 110.4 149.762 109.24C149.762 103.479 150.168 97.35 150.98 90.854C150.593 90.7767 150.187 90.7187 149.762 90.68C149.375 90.6027 148.988 90.5253 148.602 90.448C147.519 90.2933 146.978 89.984 146.978 89.52C146.978 89.056 147.21 88.766 147.674 88.65H147.616C147.268 88.65 147.326 88.6307 147.79 88.592C148.254 88.5147 148.853 88.4373 149.588 88.36C150.322 88.2827 150.902 88.244 151.328 88.244C151.56 86.8907 152.024 85.286 152.72 83.43C153.106 82.3087 153.416 81.342 153.648 80.53C153.918 79.6793 154.131 79.0027 154.286 78.5C154.479 77.7267 154.982 77.34 155.794 77.34C156.142 77.34 156.277 77.514 156.2 77.862C155.89 78.9447 155.504 80.356 155.04 82.096C154.576 83.7973 154.073 85.8273 153.532 88.186C153.88 88.186 154.305 88.186 154.808 88.186C155.349 88.186 155.968 88.2053 156.664 88.244C157.36 88.2827 157.959 88.3213 158.462 88.36C159.003 88.36 159.428 88.36 159.738 88.36C160.086 88.36 160.26 88.4953 160.26 88.766C160.26 88.998 160.105 89.2493 159.796 89.52C159.525 89.7907 159.216 89.926 158.868 89.926C158.404 89.926 157.708 90.0033 156.78 90.158C155.852 90.274 154.672 90.4673 153.242 90.738C152.662 95.494 152.372 101.951 152.372 110.11C152.372 110.69 151.985 110.98 151.212 110.98ZM173.331 108.196C173.137 108.196 172.963 108.119 172.809 107.964C171.765 106.881 171.223 105.296 171.185 103.208C171.185 103.053 171.204 102.879 171.243 102.686C171.281 102.454 171.301 102.203 171.301 101.932L171.359 100.714V100.54C171.359 99.844 171.107 99.5927 170.605 99.786C169.831 100.327 168.787 101.12 167.473 102.164C166.197 103.169 164.65 104.407 162.833 105.876C162.059 106.611 161.073 106.978 159.875 106.978C159.179 106.978 158.579 106.611 158.077 105.876C157.613 105.103 157.439 104.368 157.555 103.672C157.671 102.667 158.077 101.584 158.773 100.424C159.469 99.2253 160.319 98.046 161.325 96.886C162.369 95.6873 163.471 94.6433 164.631 93.754C165.829 92.826 166.97 92.1687 168.053 91.782C168.478 91.6273 168.884 91.5113 169.271 91.434C169.657 91.3567 170.044 91.318 170.431 91.318C172.093 91.318 172.925 91.898 172.925 93.058C172.925 93.4447 172.77 93.638 172.461 93.638C172.345 93.638 172.229 93.638 172.113 93.638C171.997 93.5993 171.881 93.5413 171.765 93.464C171.069 92.884 170.431 92.594 169.851 92.594C169.271 92.594 168.42 92.942 167.299 93.638C166.409 94.1793 165.539 94.856 164.689 95.668C163.838 96.48 163.026 97.3887 162.253 98.394C161.518 99.3607 160.938 100.231 160.513 101.004C160.087 101.739 159.836 102.396 159.759 102.976C159.72 103.131 159.701 103.324 159.701 103.556C159.701 104.175 159.952 104.484 160.455 104.484C161.073 104.484 162.233 103.923 163.935 102.802C167.995 100.095 170.817 97.698 172.403 95.61C172.789 95.1073 173.137 94.4307 173.447 93.58C173.64 93.0387 174.046 92.768 174.665 92.768C175.361 92.768 175.709 93.1547 175.709 93.928C175.709 94.5467 175.419 95.32 174.839 96.248C173.911 99.0707 173.447 101.023 173.447 102.106C173.524 103.769 173.93 105.103 174.665 106.108C174.781 106.224 174.839 106.379 174.839 106.572C174.839 106.92 174.665 107.268 174.317 107.616C173.969 108.003 173.64 108.196 173.331 108.196ZM201.64 112.72C200.557 112.72 199.938 111.425 199.784 108.834L199.958 105.586C200.074 103.962 199.996 102.976 199.726 102.628C195.511 106.379 192.592 108.254 190.968 108.254C189.305 108.254 188.474 107.133 188.474 104.89C188.474 103.266 188.996 101.449 190.04 99.438C191.045 97.5047 192.089 96.1127 193.172 95.262C194.68 94.102 195.956 93.522 197 93.522C197.812 93.522 198.624 93.7153 199.436 94.102C199.513 94.1407 199.59 94.1987 199.668 94.276C199.784 94.3533 199.9 94.4307 200.016 94.508C200.286 94.7013 200.441 94.798 200.48 94.798C200.596 94.798 200.654 94.682 200.654 94.45C200.808 92.5167 201.04 90.3707 201.35 88.012C201.698 85.6147 202.123 83.0047 202.626 80.182C202.819 79.254 203.09 78.1907 203.438 76.992C203.824 75.7933 204.288 74.4787 204.83 73.048C205.448 71.5013 206.318 70.728 207.44 70.728C209.102 70.728 210.03 72.1587 210.224 75.02C210.262 75.2133 210.282 75.426 210.282 75.658C210.282 75.8513 210.282 76.0447 210.282 76.238C210.282 79.254 209.566 82.4247 208.136 85.75L202.568 96.886C202.529 98.2007 202.587 100.153 202.742 102.744C202.78 103.131 202.838 103.691 202.916 104.426C203.032 105.122 203.148 105.837 203.264 106.572C203.38 107.307 203.476 107.925 203.554 108.428C203.67 108.969 203.728 109.259 203.728 109.298C203.728 110.226 203.515 111.019 203.09 111.676C202.664 112.372 202.181 112.72 201.64 112.72ZM203.09 92.362L206.976 84.184C207.749 82.5987 208.252 81.0907 208.484 79.66C208.754 78.1907 208.851 76.7987 208.774 75.484C208.658 73.3573 208.31 72.294 207.73 72.294C207.188 72.294 206.589 73.164 205.932 74.904C205.584 75.7933 205.294 76.7407 205.062 77.746C204.83 78.7127 204.636 79.7373 204.482 80.82L204.424 80.878C204.269 82.1153 204.076 83.7007 203.844 85.634C203.612 87.5287 203.36 89.7713 203.09 92.362ZM190.736 105.876C192.05 105.992 193.462 105.586 194.97 104.658C195.859 104.117 196.671 103.421 197.406 102.57C198.179 101.681 198.894 100.675 199.552 99.554H199.61C199.726 99.0127 199.784 98.4907 199.784 97.988C199.784 95.8613 199.01 94.798 197.464 94.798C196.342 94.798 195.105 95.494 193.752 96.886C192.785 97.93 191.973 99.09 191.316 100.366C190.388 102.145 189.924 103.575 189.924 104.658C189.924 105.393 190.194 105.799 190.736 105.876ZM214.805 108.718C213.103 108.718 211.711 108.196 210.629 107.152C209.585 106.108 209.063 104.697 209.063 102.918C209.063 102.531 209.082 102.145 209.121 101.758C209.198 101.371 209.275 100.985 209.353 100.598C209.778 98.9353 210.957 97.1567 212.891 95.262C215.056 93.2127 216.931 92.188 218.517 92.188C219.831 92.188 220.45 92.9227 220.373 94.392C220.334 96.2867 219.29 98.1427 217.241 99.96C216.351 100.695 215.423 101.371 214.457 101.99C213.529 102.609 212.543 102.918 211.499 102.918H211.441C211.557 105.431 212.852 106.688 215.327 106.688C216.139 106.688 217.047 106.495 218.053 106.108C218.13 106.069 218.246 106.05 218.401 106.05C218.903 106.05 219.155 106.301 219.155 106.804C219.155 107.152 218.981 107.423 218.633 107.616C217.55 108.351 216.274 108.718 214.805 108.718ZM213.007 100.192C214.205 99.9213 215.23 99.4187 216.081 98.684C217.589 97.408 218.343 96.19 218.343 95.03V94.914C218.343 94.6433 218.246 94.4307 218.053 94.276C217.859 94.1213 217.724 94.0827 217.647 94.16C216.448 94.16 215.172 95.03 213.819 96.77C213.625 97.0407 213.393 97.408 213.123 97.872C212.852 98.2973 212.562 98.8193 212.253 99.438C212.214 99.5153 212.195 99.5927 212.195 99.67C212.195 100.018 212.465 100.192 213.007 100.192ZM244.575 107.5C243.724 107.539 243.067 107.036 242.603 105.992C242.525 105.799 242.429 105.47 242.313 105.006C242.197 104.542 242.042 103.943 241.849 103.208C241.694 102.241 241.443 101.855 241.095 102.048C240.476 103.015 239.587 104.078 238.427 105.238C236.957 106.707 235.855 107.442 235.121 107.442C234.309 107.442 233.613 106.823 233.033 105.586C232.53 104.619 232.279 103.691 232.279 102.802C232.279 99.8247 232.665 97.2147 233.439 94.972C233.632 94.508 233.922 94.276 234.309 94.276C234.657 94.276 234.985 94.45 235.295 94.798C235.604 95.146 235.759 95.5327 235.759 95.958C235.759 96.19 235.604 96.654 235.295 97.35C234.56 98.7807 234.193 100.385 234.193 102.164C234.193 104.097 234.56 105.064 235.295 105.064C235.643 105.064 236.493 104.503 237.847 103.382C240.244 101.333 241.965 98.6647 243.009 95.378C243.202 94.914 243.511 94.682 243.937 94.682C244.633 94.682 244.981 94.972 244.981 95.552C244.981 95.9387 244.923 96.364 244.807 96.828C244.729 97.292 244.594 97.814 244.401 98.394C244.246 98.974 244.13 99.496 244.053 99.96C243.975 100.424 243.937 100.849 243.937 101.236C243.937 101.507 243.956 101.835 243.995 102.222C244.033 102.57 244.091 102.957 244.169 103.382C244.362 104.542 244.575 105.219 244.807 105.412C244.807 105.412 245 105.315 245.387 105.122C245.812 104.89 246.276 104.658 246.779 104.426C247.32 104.155 247.765 103.923 248.113 103.73C248.499 103.498 248.693 103.382 248.693 103.382C249.079 103.382 249.273 103.537 249.273 103.846C249.273 104.155 248.944 104.6 248.287 105.18C247.668 105.76 246.991 106.282 246.257 106.746C245.522 107.21 244.961 107.461 244.575 107.5ZM250.311 107.094C249.731 107.094 249.518 106.572 249.673 105.528C249.789 104.175 249.982 102.512 250.253 100.54C250.562 98.5293 250.929 96.2093 251.355 93.58C251.548 93 251.857 92.71 252.283 92.71C252.824 92.71 253.095 92.9613 253.095 93.464C253.095 93.5027 253.095 93.58 253.095 93.696C253.095 93.7733 253.075 93.87 253.037 93.986C252.959 94.334 252.882 94.7207 252.805 95.146C252.766 95.5327 252.747 95.958 252.747 96.422C252.747 96.9633 252.766 97.5433 252.805 98.162C252.882 98.7807 252.998 99.438 253.153 100.134C253.385 100.134 254.332 99.3027 255.995 97.64C257.657 96.0547 259.011 95.1073 260.055 94.798V94.74C260.171 94.7013 260.287 94.682 260.403 94.682C260.519 94.682 260.615 94.682 260.693 94.682C261.427 94.682 261.911 95.03 262.143 95.726L262.955 101.12C263.303 103.479 263.941 104.658 264.869 104.658C265.255 104.658 265.642 104.523 266.029 104.252C266.57 103.865 267.092 103.459 267.595 103.034C268.097 102.57 268.542 102.087 268.929 101.584C269.161 101.507 269.315 101.468 269.393 101.468C269.663 101.468 269.799 101.642 269.799 101.99C269.799 102.222 269.644 102.531 269.335 102.918C268.832 103.537 268.31 104.175 267.769 104.832C267.227 105.451 266.686 105.934 266.145 106.282C265.41 106.707 264.791 106.92 264.289 106.92C263.245 106.92 262.452 106.069 261.911 104.368L260.925 99.67C260.577 98.0847 260.132 97.3693 259.591 97.524C259.552 97.524 259.494 97.524 259.417 97.524C259.378 97.4853 259.32 97.466 259.243 97.466C259.088 97.466 258.895 97.5047 258.663 97.582C258.469 97.6593 258.276 97.7947 258.083 97.988L256.691 99.438C255.492 100.675 254.487 101.874 253.675 103.034C252.863 104.194 252.205 105.277 251.703 106.282C251.393 106.823 250.929 107.094 250.311 107.094ZM285.209 108.718C283.508 108.718 282.116 108.196 281.033 107.152C279.989 106.108 279.467 104.697 279.467 102.918C279.467 102.531 279.486 102.145 279.525 101.758C279.602 101.371 279.68 100.985 279.757 100.598C280.182 98.9353 281.362 97.1567 283.295 95.262C285.46 93.2127 287.336 92.188 288.921 92.188C290.236 92.188 290.854 92.9227 290.777 94.392C290.738 96.2867 289.694 98.1427 287.645 99.96C286.756 100.695 285.828 101.371 284.861 101.99C283.933 102.609 282.947 102.918 281.903 102.918H281.845C281.961 105.431 283.256 106.688 285.731 106.688C286.543 106.688 287.452 106.495 288.457 106.108C288.534 106.069 288.65 106.05 288.805 106.05C289.308 106.05 289.559 106.301 289.559 106.804C289.559 107.152 289.385 107.423 289.037 107.616C287.954 108.351 286.678 108.718 285.209 108.718ZM283.411 100.192C284.61 99.9213 285.634 99.4187 286.485 98.684C287.993 97.408 288.747 96.19 288.747 95.03V94.914C288.747 94.6433 288.65 94.4307 288.457 94.276C288.264 94.1213 288.128 94.0827 288.051 94.16C286.852 94.16 285.576 95.03 284.223 96.77C284.03 97.0407 283.798 97.408 283.527 97.872C283.256 98.2973 282.966 98.8193 282.657 99.438C282.618 99.5153 282.599 99.5927 282.599 99.67C282.599 100.018 282.87 100.192 283.411 100.192ZM297.061 110.98C296.095 110.98 295.611 110.4 295.611 109.24C295.611 103.479 296.017 97.35 296.829 90.854C296.443 90.7767 296.037 90.7187 295.611 90.68C295.225 90.6027 294.838 90.5253 294.451 90.448C293.369 90.2933 292.827 89.984 292.827 89.52C292.827 89.056 293.059 88.766 293.523 88.65H293.465C293.117 88.65 293.175 88.6307 293.639 88.592C294.103 88.5147 294.703 88.4373 295.437 88.36C296.172 88.2827 296.752 88.244 297.177 88.244C297.409 86.8907 297.873 85.286 298.569 83.43C298.956 82.3087 299.265 81.342 299.497 80.53C299.768 79.6793 299.981 79.0027 300.135 78.5C300.329 77.7267 300.831 77.34 301.643 77.34C301.991 77.34 302.127 77.514 302.049 77.862C301.74 78.9447 301.353 80.356 300.889 82.096C300.425 83.7973 299.923 85.8273 299.381 88.186C299.729 88.186 300.155 88.186 300.657 88.186C301.199 88.186 301.817 88.2053 302.513 88.244C303.209 88.2827 303.809 88.3213 304.311 88.36C304.853 88.36 305.278 88.36 305.587 88.36C305.935 88.36 306.109 88.4953 306.109 88.766C306.109 88.998 305.955 89.2493 305.645 89.52C305.375 89.7907 305.065 89.926 304.717 89.926C304.253 89.926 303.557 90.0033 302.629 90.158C301.701 90.274 300.522 90.4673 299.091 90.738C298.511 95.494 298.221 101.951 298.221 110.11C298.221 110.69 297.835 110.98 297.061 110.98ZM312.396 108.718C310.695 108.718 309.303 108.196 308.22 107.152C307.176 106.108 306.654 104.697 306.654 102.918C306.654 102.531 306.674 102.145 306.712 101.758C306.79 101.371 306.867 100.985 306.944 100.598C307.37 98.9353 308.549 97.1567 310.482 95.262C312.648 93.2127 314.523 92.188 316.108 92.188C317.423 92.188 318.042 92.9227 317.964 94.392C317.926 96.2867 316.882 98.1427 314.832 99.96C313.943 100.695 313.015 101.371 312.048 101.99C311.12 102.609 310.134 102.918 309.09 102.918H309.032C309.148 105.431 310.444 106.688 312.918 106.688C313.73 106.688 314.639 106.495 315.644 106.108C315.722 106.069 315.838 106.05 315.992 106.05C316.495 106.05 316.746 106.301 316.746 106.804C316.746 107.152 316.572 107.423 316.224 107.616C315.142 108.351 313.866 108.718 312.396 108.718ZM310.598 100.192C311.797 99.9213 312.822 99.4187 313.672 98.684C315.18 97.408 315.934 96.19 315.934 95.03V94.914C315.934 94.6433 315.838 94.4307 315.644 94.276C315.451 94.1213 315.316 94.0827 315.238 94.16C314.04 94.16 312.764 95.03 311.41 96.77C311.217 97.0407 310.985 97.408 310.714 97.872C310.444 98.2973 310.154 98.8193 309.844 99.438C309.806 99.5153 309.786 99.5927 309.786 99.67C309.786 100.018 310.057 100.192 310.598 100.192ZM322.045 107.094C321.658 107.094 321.407 106.649 321.291 105.76C321.175 104.832 321.117 103.885 321.117 102.918C321.117 102.299 321.117 101.739 321.117 101.236C321.156 100.695 321.175 100.289 321.175 100.018C321.175 99.6313 321.194 99.148 321.233 98.568C321.272 97.9493 321.33 97.2533 321.407 96.48C321.523 94.8947 321.581 93.696 321.581 92.884C321.581 92.4973 321.562 92.13 321.523 91.782C321.484 91.3953 321.465 91.0473 321.465 90.738V90.506C321.465 90.042 321.716 89.81 322.219 89.81C322.606 89.81 322.818 90.042 322.857 90.506C322.934 90.9313 322.992 91.8013 323.031 93.116C323.07 94.4307 323.108 96.1707 323.147 98.336C323.147 98.916 323.263 99.206 323.495 99.206C323.766 99.206 324.172 98.7613 324.713 97.872C325.834 96.016 327.052 94.45 328.367 93.174C329.334 92.2847 330.223 91.84 331.035 91.84C332.002 91.84 332.833 92.2653 333.529 93.116C333.761 93.3867 333.877 93.6767 333.877 93.986C333.877 94.4887 333.664 94.74 333.239 94.74C333.084 94.74 332.91 94.682 332.717 94.566L332.659 94.624C331.924 94.0827 331.441 93.812 331.209 93.812C330.281 93.812 329.411 94.3147 328.599 95.32C325.776 98.8 324.036 102.319 323.379 105.876C323.224 106.688 322.78 107.094 322.045 107.094ZM335.272 107.094C334.692 107.094 334.479 106.572 334.634 105.528C334.75 104.175 334.943 102.512 335.214 100.54C335.523 98.5293 335.89 96.2093 336.316 93.58C336.509 93 336.818 92.71 337.244 92.71C337.785 92.71 338.056 92.9613 338.056 93.464C338.056 93.5027 338.056 93.58 338.056 93.696C338.056 93.7733 338.036 93.87 337.998 93.986C337.92 94.334 337.843 94.7207 337.766 95.146C337.727 95.5327 337.708 95.958 337.708 96.422C337.708 96.9633 337.727 97.5433 337.766 98.162C337.843 98.7807 337.959 99.438 338.114 100.134C338.346 100.134 339.293 99.3027 340.956 97.64C342.618 96.0547 343.972 95.1073 345.016 94.798V94.74C345.132 94.7013 345.248 94.682 345.364 94.682C345.48 94.682 345.576 94.682 345.654 94.682C346.388 94.682 346.872 95.03 347.104 95.726L347.916 101.12C348.264 103.479 348.902 104.658 349.83 104.658C350.216 104.658 350.603 104.523 350.99 104.252C351.531 103.865 352.053 103.459 352.556 103.034C353.058 102.57 353.503 102.087 353.89 101.584C354.122 101.507 354.276 101.468 354.354 101.468C354.624 101.468 354.76 101.642 354.76 101.99C354.76 102.222 354.605 102.531 354.296 102.918C353.793 103.537 353.271 104.175 352.73 104.832C352.188 105.451 351.647 105.934 351.106 106.282C350.371 106.707 349.752 106.92 349.25 106.92C348.206 106.92 347.413 106.069 346.872 104.368L345.886 99.67C345.538 98.0847 345.093 97.3693 344.552 97.524C344.513 97.524 344.455 97.524 344.378 97.524C344.339 97.4853 344.281 97.466 344.204 97.466C344.049 97.466 343.856 97.5047 343.624 97.582C343.43 97.6593 343.237 97.7947 343.044 97.988L341.652 99.438C340.453 100.675 339.448 101.874 338.636 103.034C337.824 104.194 337.166 105.277 336.664 106.282C336.354 106.823 335.89 107.094 335.272 107.094ZM358.342 108.37C357.105 108.37 356.061 107.887 355.21 106.92C354.437 106.031 354.05 105.025 354.05 103.904C354.05 101.816 354.998 99.5927 356.892 97.234C357.666 96.2287 358.497 95.3393 359.386 94.566C360.276 93.7927 361.204 93.0967 362.17 92.478C362.364 92.362 362.634 92.304 362.982 92.304C364.104 92.304 364.664 92.5747 364.664 93.116C364.664 93.2707 364.548 93.4447 364.316 93.638V93.696C364.896 94.508 365.476 95.3587 366.056 96.248C366.636 97.1373 366.926 98.1813 366.926 99.38C366.926 100.385 366.656 101.41 366.114 102.454C365.612 103.498 364.916 104.484 364.026 105.412C363.176 106.301 362.248 107.017 361.242 107.558C360.237 108.099 359.27 108.37 358.342 108.37ZM358.4 106.572C359.367 106.533 360.392 106.147 361.474 105.412C362.557 104.639 363.485 103.711 364.258 102.628C365.07 101.545 365.496 100.521 365.534 99.554C365.612 98.046 364.838 96.3447 363.214 94.45C361.552 95.6487 360.082 97.06 358.806 98.684C357.298 100.656 356.544 102.435 356.544 104.02C356.544 105.721 357.163 106.572 358.4 106.572Z" fill="white"/>
<path d="M25.344 190.5L1.632 121.092H17.136L34.464 171.444L51.744 121.092H67.296L43.536 190.5H25.344ZM76.0103 190.5V121.092H125.498L125.402 134.724H92.4743V148.884H120.554V162.228H92.3783V176.724L125.786 176.772V190.5H76.0103ZM137.604 190.5V121.092H167.988C173.78 121.092 178.468 122.036 182.052 123.924C185.636 125.78 188.26 128.34 189.924 131.604C191.588 134.836 192.42 138.516 192.42 142.644C192.42 146.26 191.908 149.332 190.884 151.86C189.86 154.356 188.468 156.468 186.708 158.196C184.98 159.892 183.028 161.332 180.852 162.516L193.38 190.5H176.58L165.876 165.156H153.972V190.5H137.604ZM153.972 152.82H165.732C168.804 152.82 171.268 151.844 173.124 149.892C175.012 147.94 175.956 145.62 175.956 142.932C175.956 140.116 174.996 137.812 173.076 136.02C171.156 134.228 168.868 133.332 166.212 133.332H153.972V152.82ZM201.002 190.5L225.674 121.092H242.618L267.338 190.5H251.114L245.978 175.716H222.554L217.322 190.5H201.002ZM226.106 161.652H242.186L234.17 136.788L226.106 161.652ZM276.448 190.5V121.092H292.816L322.192 163.428V121.092H338.512V190.5H323.776L292.816 145.956V190.5H276.448ZM382.856 191.46C376.136 191.46 370.312 190.02 365.384 187.14C360.488 184.228 356.696 180.116 354.008 174.804C351.32 169.492 349.976 163.204 349.976 155.94C349.976 148.612 351.336 142.276 354.056 136.932C356.776 131.588 360.6 127.46 365.528 124.548C370.488 121.604 376.264 120.132 382.856 120.132C389.448 120.132 395.176 121.604 400.04 124.548C404.936 127.46 408.728 131.588 411.416 136.932C414.136 142.276 415.496 148.612 415.496 155.94C415.496 163.204 414.168 169.492 411.512 174.804C408.856 180.116 405.08 184.228 400.184 187.14C395.288 190.02 389.512 191.46 382.856 191.46ZM382.856 178.212C385.832 178.212 388.44 177.492 390.68 176.052C392.92 174.58 394.648 172.228 395.864 168.996C397.112 165.764 397.736 161.492 397.736 156.18C397.736 150.708 397.112 146.308 395.864 142.98C394.616 139.62 392.872 137.188 390.632 135.684C388.392 134.148 385.8 133.38 382.856 133.38C379.88 133.38 377.272 134.148 375.032 135.684C372.792 137.22 371.032 139.668 369.752 143.028C368.504 146.356 367.88 150.74 367.88 156.18C367.88 161.492 368.504 165.764 369.752 168.996C371.032 172.228 372.792 174.58 375.032 176.052C377.272 177.492 379.88 178.212 382.856 178.212Z" fill="#FFD644"/>
<defs>
<clipPath id="clip0_25086_18770">
<rect width="69" height="69" fill="white" transform="translate(175.5 0.5)"/>
</clipPath>
</defs>
</svg>
