<?xml version="1.0" encoding="UTF-8"?>
<svg id="Layer_2" data-name="Layer 2" xmlns="http://www.w3.org/2000/svg" xmlns:xlink="http://www.w3.org/1999/xlink" viewBox="0 0 301.4 54.68">
  <defs>
    <style>
      .cls-1 {
        fill: url(#linear-gradient);
      }

      .cls-1, .cls-2, .cls-3, .cls-4, .cls-5, .cls-6, .cls-7 {
        stroke-width: 0px;
      }

      .cls-2 {
        fill: #079da3;
      }

      .cls-8 {
        mask: url(#mask-2);
      }

      .cls-9 {
        mask: url(#mask-3);
      }

      .cls-3 {
        fill: #055d81;
      }

      .cls-4 {
        fill: url(#linear-gradient-2);
      }

      .cls-5 {
        fill: #212952;
      }

      .cls-6 {
        fill: url(#linear-gradient-3);
      }

      .cls-10 {
        mask: url(#mask-1);
      }

      .cls-11 {
        mask: url(#mask);
      }

      .cls-7 {
        fill: url(#linear-gradient-4);
      }
    </style>
    <linearGradient id="linear-gradient" x1="3040.71" y1="-2104.22" x2="3040.71" y2="-1836.92" gradientTransform="translate(-445.28 -289.41) scale(.16 -.16)" gradientUnits="userSpaceOnUse">
      <stop offset="0" stop-color="#fff"/>
      <stop offset="1" stop-color="#fff" stop-opacity="0"/>
    </linearGradient>
    <mask id="mask" x="27.82" y="0" width="34.19" height="54.3" maskUnits="userSpaceOnUse">
      <g id="id0">
        <rect class="cls-1" x="27.82" y="0" width="34.19" height="54.3"/>
      </g>
    </mask>
    <linearGradient id="linear-gradient-2" x1="3108.74" y1="-1963.68" x2="2962.44" y2="-1963.68" xlink:href="#linear-gradient"/>
    <mask id="mask-1" x="27.82" y="0" width="34.19" height="54.3" maskUnits="userSpaceOnUse">
      <g id="id2">
        <rect class="cls-4" x="27.82" y="0" width="34.19" height="54.3"/>
      </g>
    </mask>
    <linearGradient id="linear-gradient-3" x1="2976.5" y1="-2049.05" x2="2800.18" y2="-2049.05" xlink:href="#linear-gradient"/>
    <mask id="mask-2" x="2.25" y="27.52" width="37" height="26.78" maskUnits="userSpaceOnUse">
      <g id="id4">
        <rect class="cls-6" x="2.25" y="27.52" width="37" height="26.78"/>
      </g>
    </mask>
    <linearGradient id="linear-gradient-4" x1="2909.09" y1="-2066.98" x2="2956.99" y2="-1990.78" xlink:href="#linear-gradient"/>
    <mask id="mask-3" x="23.45" y="27.52" width="10.32" height="16.93" maskUnits="userSpaceOnUse">
      <g id="id6">
        <rect class="cls-7" x="23.45" y="27.52" width="10.32" height="16.93"/>
      </g>
    </mask>
  </defs>
  <g id="Layer_1-2" data-name="Layer 1">
    <g>
      <path class="cls-3" d="m94.82,54.3l-9.43-25.67h-3.88l-9.36,25.67h3.58l2.13-6.01h10.92l2.13,6.01s3.92,0,3.92,0Zm-7-8.79h-9.05l3.31-9.13c.49-1.29.88-2.62,1.18-3.88h.08c.3,1.33.65,2.55,1.14,3.84l3.35,9.17h0Zm34.62-16.89h-3.58l-5.9,16.24c-.76,2.05-1.29,3.77-1.79,5.59h-.04c-.53-1.9-1.18-3.84-1.67-5.32l-5.74-16.51h-3.88l9.24,25.67h3.92l9.43-25.67h0Zm27.81,25.67l-9.43-25.67h-3.88l-9.36,25.67h3.58l2.13-6.01h10.92l2.13,6.01h3.92Zm-7-8.79h-9.05l3.31-9.13c.49-1.29.88-2.62,1.18-3.88h.08c.3,1.33.65,2.55,1.14,3.84l3.35,9.17h0Zm37.51,8.79v-25.67h-3.39v7.3c0,4.26.11,10.57.27,13.73-.95-1.83-2.02-3.77-3.16-5.63l-9.55-15.41h-4.6v25.67h3.42v-8.25c0-4.07-.11-10.23-.27-12.97.84,1.71,1.75,3.46,2.93,5.32l9.78,15.9h4.56,0Zm32.3-24.91c-2.28-.72-4.6-1.1-7.04-1.1-8.63,0-13.88,5.82-13.88,13.69s4.98,12.67,12.74,12.67c2.81,0,5.93-.53,8.48-1.48v-11.94h-3.46v9.7c-1.37.42-2.81.69-4.53.69-5.78,0-9.51-3.65-9.51-10.04,0-6.85,4.53-10.27,9.81-10.27,2.36,0,4.72.49,6.85,1.37l.53-3.27h0Zm28.19,2.17v-2.93h-18.3v2.93h7.38v22.75h3.5v-22.75h7.42Zm29.71,12.93v-15.86h-3.42v16.13c0,5.17-2.09,7.04-6.58,7.04-5.17,0-6.35-2.85-6.35-6.39v-16.77h-3.5v17.04c0,4.56,1.6,9.01,9.62,9.01,6.7,0,10.23-3.46,10.23-10.19h0Zm30.44,9.81l-7.27-9.17c-.69-.84-1.48-1.83-2.24-2.74,4.49-.3,7.83-2.85,7.83-7.23,0-4.91-3.65-6.7-8.71-6.7-2.81,0-4.68.04-6.43.15v25.67h3.5v-11.52h.15l8.71,11.52h4.45Zm-5.32-18.68c0,2.74-2.13,4.6-5.82,4.6-1.03,0-1.79-.04-2.17-.08v-8.75c.69-.04,1.45-.08,2.32-.08,3.73,0,5.67,1.22,5.67,4.3h0Z"/>
      <g>
        <path class="cls-2" d="m32.95,1.11l28.76,49.82c.62,1.07.25,2.44-.82,3.06-.35.2-.74.3-1.12.3h0s-28.76,0-28.76,0c-.89,0-1.66-.52-2.02-1.27l-1.16-2.02c.62-.36,1.31-.77,1.97-1.17.64-.39,1.28-.8,1.83-1.2l.67,1.16h23.59l-12.44-21.54L31.01,6.72l-12.37,21.43s-.04.08-.07.12l-12.42,21.52c2.9-.04,5.78-.18,8.63-.61,3.48-.54,6.95-1.53,10.41-3.39,1.26-.66,2.79-1.68,3.86-2.53.18-.14.36-.28.54-.42h0c3.76-3.04,5.15-5.62,5.18-7.57.02-1.58-1.03-2.71-2.32-3.1s-2.79-.06-3.65,1.26c-1.01,1.54-1.33,4.23-.19,8.4l-.43.34h0c-.51.41-1.14.86-1.81,1.3-.57.37-1.14.72-1.64.99-2.04-6.44-1.42-10.83.33-13.48,2.1-3.2,5.68-4.02,8.71-3.08,3.04.93,5.53,3.62,5.48,7.44-.05,3.34-2.2,7.56-8.12,11.97-1.24.91-3.09,2-4.42,2.76-3.76,1.92-7.52,2.98-11.27,3.56-4.46.69-8.82.69-13.19.69-1.24,0-2.25-1.01-2.25-2.25,0-.47.14-.9.39-1.26l14.3-24.77s.05-.08.07-.12L29.07,1.12c.62-1.07,1.98-1.44,3.05-.83.35.2.63.49.82.82h0s0,0,0,0Z"/>
        <g class="cls-11">
          <path class="cls-5" d="m32.95,1.11l28.76,49.82c.62,1.07.25,2.44-.82,3.06-.35.2-.74.3-1.12.3h0s-28.76,0-28.76,0c-.89,0-1.66-.52-2.02-1.27l-1.16-2.02c.62-.36,1.31-.77,1.97-1.17.64-.39,1.28-.8,1.83-1.2l.67,1.16h23.59l-12.44-21.54L31.01,6.72l-1.94-5.59c.62-1.07,1.98-1.44,3.05-.83.35.2.63.49.82.82h0s0,0,0,0Z"/>
        </g>
        <g class="cls-10">
          <path class="cls-3" d="m32.95,1.11l28.76,49.82c.62,1.07.25,2.44-.82,3.06-.35.2-.74.3-1.12.3h0s-28.76,0-28.76,0c-.89,0-1.66-.52-2.02-1.27l-1.16-2.02c.62-.36,1.31-.77,1.97-1.17.64-.39,1.28-.8,1.83-1.2l.67,1.16h23.59l-12.44-21.54L31.01,6.72l-1.94-5.59c.62-1.07,1.98-1.44,3.05-.83.35.2.63.49.82.82h0s0,0,0,0Z"/>
        </g>
        <g class="cls-8">
          <path class="cls-3" d="m6.14,49.79c2.9-.04,5.78-.18,8.63-.61,3.48-.54,6.95-1.53,10.41-3.39,1.26-.66,2.79-1.68,3.86-2.53.18-.14.36-.28.54-.42h0c3.76-3.04,5.15-5.62,5.18-7.57.02-1.58-1.03-2.71-2.32-3.1s-2.79-.06-3.65,1.26c-1.01,1.54-1.33,4.23-.19,8.4l-.43.34h0c-.51.41-1.14.86-1.81,1.3-.57.37-1.14.72-1.64.99-2.04-6.44-1.42-10.83.33-13.48,2.1-3.2,5.68-4.02,8.71-3.08,3.04.93,5.53,3.62,5.48,7.44-.05,3.34-2.2,7.56-8.12,11.97-1.24.91-3.09,2-4.42,2.76-3.76,1.92-7.52,2.98-11.27,3.56-4.46.69-8.82.69-13.19.69l3.9-4.51h0Z"/>
        </g>
        <path class="cls-3" d="m32.45,32.17c-1.28-.39-2.79-.06-3.65,1.26-1.01,1.54-1.33,4.23-.19,8.4l-.43.34h0c-.51.41-1.14.86-1.81,1.3-.57.37-1.14.72-1.64.99-2.04-6.44-1.42-10.83.33-13.48,2.1-3.2,5.68-4.02,8.71-3.08l-1.32,4.28h0Z"/>
        <g class="cls-9">
          <path class="cls-5" d="m32.45,32.17c-1.28-.39-2.79-.06-3.65,1.26-1.01,1.54-1.33,4.23-.19,8.4l-.43.34h0c-.51.41-1.14.86-1.81,1.3-.57.37-1.14.72-1.64.99-2.04-6.44-1.42-10.83.33-13.48,2.1-3.2,5.68-4.02,8.71-3.08l-1.32,4.28h0Z"/>
        </g>
      </g>
    </g>
  </g>
</svg>